# xmcd CD database file
#
# Track frame offsets:
#	150
#	22818
#	42744
#	54580
#	75518
#	96049
#	111762
#	136086
#	159448
#	181219
#	202324
#	223429
#	242046
#	264630
#	282191
#	306797
#	325173
#
# Disc length: 4602 seconds
#
# Revision: 1
# Processed by: cddbd v1.5.2PL0 Copyright (c) Steve Scherf et al.
# Submitted via: CDex 1.81
#
DISCID=f311f811
DTITLE=Various Artist - Salsa broso CD 2
DYEAR=2008
DGENRE=Salsa
TTITLE0=Dejala - Orquesta Canela
TTITLE1=Bajo  La Tormenta - Varios
TTITLE2=Yo Soy Una Mujer - Barbarita
TTITLE3=Perdoname - Son Latino
TTITLE4=Hipocrecia - Marc Anthony
TTITLE5=Casi Perfecto - N'klabe
TTITLE6=Con La Misma Moneda - Josimar
TTITLE7=La Novia - Grupo Niche
TTITLE8=Lo Que Un Dia Fue No Sera - Michell Robles
TTITLE9=Estas Ahi - Gilberto Santa Rosa
TTITLE10=Cambio De Piel - Marc Anthony
TTITLE11=Tan Solo Tu - Grupo Gale
TTITLE12=Juegas Al Amor - Irving Manuel Ft. La Novel
TTITLE13=Peligroso Amor - Jose Alberto
TTITLE14=He Renunciado A Ti - Lo Pasado Pasado
TTITLE15=Callate - Yan Collazo
TTITLE16=Ya Te Olvide - Vernis Hernandez Y Lan
EXTD=YEAR: 2008
EXTT0=
EXTT1=
EXTT2=
EXTT3=
EXTT4=
EXTT5=
EXTT6=
EXTT7=
EXTT8=
EXTT9=
EXTT10=
EXTT11=
EXTT12=
EXTT13=
EXTT14=
EXTT15=
EXTT16=
PLAYORDER=
